<?xml version="1.0" encoding="utf-8"?>
<!-- Generator: Adobe Illustrator 27.2.0, SVG Export Plug-In . SVG Version: 6.00 Build 0)  -->
<svg version="1.1" id="Capa_1" xmlns="http://www.w3.org/2000/svg" xmlns:xlink="http://www.w3.org/1999/xlink" x="0px" y="0px"
	 viewBox="0 0 595.28 841.89" style="enable-background:new 0 0 595.28 841.89;" xml:space="preserve">
<style type="text/css">
	.st0{fill:#41ACD6;}
	.st1{fill:#41ACD6;stroke:#41ACD6;stroke-miterlimit:10;}
	.st2{fill:#A3C94D;stroke:#A3C94D;stroke-miterlimit:10;}
	.st3{fill:#27ABE2;stroke:#27ABE2;stroke-miterlimit:10;}
</style>
<g id="Capa_2">
	<g>
		<path class="st0" d="M356.24,443.17c2.65-0.83,7.97-2.89,12.81-7.88c5.38-5.54,7.19-11.64,7.83-14.35
			c0.12,2.06,0.77,8.56,5.87,14.46c4.85,5.61,10.8,7.29,12.85,7.77c-2.17,0.44-7.85,1.9-12.83,6.94
			c-5.12,5.18-6.46,11.05-6.85,13.22c0.03-1.38,0.05-8.21-5.28-13.92C364.94,443.31,357.49,443.17,356.24,443.17z"/>
		<path class="st1" d="M387.92,489.73c0,0,22.56-8.16,23.52-24c0,0,7.2,21.12,23.04,24c0,0-17.76,3.36-23.28,22.56
			C411.2,512.29,407.6,491.65,387.92,489.73z"/>
		<path class="st1" d="M330.32,564.61c2.86,0.03,19.9-0.09,33.12-13.92c12.56-13.13,12.54-29.09,12.48-32.16
			c0.25,3.71,1.72,19.38,14.88,32.16c12.97,12.59,28.39,13.74,32.16,13.92c-4.84,0.77-21.35,4.02-33.98,18.76
			c-8.57,10-11.34,20.59-12.34,25.88c-1.99-5.93-6.3-16.17-15.6-25.92C349.49,571.22,336.54,566.46,330.32,564.61z"/>
		<path class="st2" d="M243.8,436.81c0,0-27.96,37.08-19.44,97.56c0,0,3.72,37.92,31.08,60c0,0,7.2,0.96,10.08,0
			c2.88-0.96,2.88-0.96,2.88-0.96s41.28-23.04,48.96-46.08c0,0,24.96-36.48,7.2-115.2c0,0-2.88-52.32,17.28-85.44
			c0,0-58.08-18.24-114.24,24c0,0-139.68,112.8-20.16,264.96c0,0,39.84,45.12,101.28,48.72c0,0,29.59,4.85,64.87-10.89
			c31.67-14.12,67.51-43.78,80.45-96.09l4.25-20.16c0,0-16.37,38.1-25.49,48.66c-8.1,9.38-95.04,103.44-202.32,0.48
			c0,0-49.7-42.48-28.08-137.52c0,0,14.04-67.68,84.96-85.32c0,0-3.24,67.32,5.76,91.44c0,0,15.12,57.24-27.72,77.04
			c0,0-24.57-12.46-26.28-58.44C239.12,493.57,235.52,455.41,243.8,436.81z"/>
		<path class="st3" d="M297.64,706.89c0,0-130.64-14-162.64-159c0,0-16-89,38-161c20.64-27.31,41.57-56.46,62.5-87.5
			c24.85-36.85,47.25-72.74,67.46-107.26c13.05,26.84,28.99,56,48.46,86.41c15.24,23.79,30.64,45.21,45.58,64.35c0,0,76,96,66,185
			c-0.9,8.09-2.06,16.59-3.56,25.44c-1.57,9.3-3.36,18.11-5.28,26.4c-3.04,10.77-17.9,58.89-66.71,86.83
			c-32.33,18.51-63.54,18.99-77.45,18.33c13.09,1.76,30.61,2.6,50.75-0.75c37.74-6.27,64.44-23.9,78.17-34.57
			c25.95-20.17,36.69-44.89,42.33-56.93c33.32-71.05,10.16-145.43,2.67-166.86c-12.18-25.6-29.95-64.49-59.04-107.41
			c-8.92-13.16-9.75-13.94-37.72-55.23c-28.47-42.02-42.87-63.34-50.95-78c-19.51-35.43-35.56-74.37-35.67-74.32
			c-0.01,0,0.08,0.22,0.17,0.43c-7.24,21.87-19.55,41.03-32.43,67.08c-11.91,24.11-24.06,43.27-33.45,58.57
			c-53.57,87.28-83.7,111.41-104.56,154.03c-37.31,76.23-39.17,199.8,32.05,267.05C207.44,700.57,266.95,706.47,297.64,706.89z"/>
	</g>
	<g id="Capa_3">
		<g id="Capa_4">
		</g>
	</g>
	<path class="st3" d="M20.24,512.41"/>
</g>
</svg>
